<svg xmlns="http://www.w3.org/2000/svg" viewBox="0 0 1200 628">
  <!-- Background -->
  <rect width="1200" height="628" fill="#f5f0eb"/>

  <!-- Brand color bar at top -->
  <rect width="1200" height="6" fill="#c0622e"/>

  <!-- Left side: Icon -->
  <g transform="translate(60, 100) scale(0.84)">
    <rect width="512" height="512" rx="102" fill="#c0622e"/>
    <rect x="105" y="140" width="32" height="200" rx="4" fill="white" opacity="0.95"/>
    <rect x="170" y="160" width="32" height="180" rx="4" fill="white" opacity="0.95"/>
    <rect x="235" y="140" width="32" height="200" rx="4" fill="white" opacity="0.95"/>
    <rect x="300" y="160" width="32" height="180" rx="4" fill="white" opacity="0.95"/>
    <rect x="365" y="140" width="32" height="200" rx="4" fill="white" opacity="0.95"/>
    <polygon points="105,140 121,108 137,140" fill="white" opacity="0.95"/>
    <polygon points="170,160 186,128 202,160" fill="white" opacity="0.95"/>
    <polygon points="235,140 251,108 267,140" fill="white" opacity="0.95"/>
    <polygon points="300,160 316,128 332,160" fill="white" opacity="0.95"/>
    <polygon points="365,140 381,108 397,140" fill="white" opacity="0.95"/>
    <rect x="95" y="195" width="312" height="16" rx="3" fill="white" opacity="0.7"/>
    <rect x="95" y="275" width="312" height="16" rx="3" fill="white" opacity="0.7"/>
    <path d="M80 390 L160 375 L260 395 L360 370 L440 385" stroke="white" stroke-width="6" fill="none" stroke-dasharray="16,10" stroke-linecap="round" opacity="0.9"/>
    <circle cx="80" cy="390" r="12" fill="white"/>
    <circle cx="80" cy="390" r="5" fill="#c0622e"/>
    <circle cx="260" cy="395" r="12" fill="white"/>
    <circle cx="260" cy="395" r="5" fill="#c0622e"/>
    <circle cx="440" cy="385" r="12" fill="white"/>
    <circle cx="440" cy="385" r="5" fill="#c0622e"/>
  </g>

  <!-- Right side: Text content -->
  <text x="560" y="190" font-family="Arial, Helvetica, sans-serif" font-size="72" font-weight="bold" fill="#2d2017">FenceTrace</text>

  <text x="560" y="260" font-family="Arial, Helvetica, sans-serif" font-size="36" fill="#6b5a4e">Satellite Fence Estimating Software</text>

  <!-- Feature list -->
  <circle cx="575" cy="332" r="6" fill="#c0622e"/>
  <text x="595" y="345" font-family="Arial, Helvetica, sans-serif" font-size="30" fill="#4a3f35">Draw fence lines on satellite imagery</text>

  <circle cx="575" cy="387" r="6" fill="#c0622e"/>
  <text x="595" y="400" font-family="Arial, Helvetica, sans-serif" font-size="30" fill="#4a3f35">Generate professional estimates instantly</text>

  <circle cx="575" cy="442" r="6" fill="#c0622e"/>
  <text x="595" y="455" font-family="Arial, Helvetica, sans-serif" font-size="30" fill="#4a3f35">Wood, vinyl, chain link, aluminum &amp; iron</text>

  <!-- CTA button -->
  <rect x="560" y="500" width="340" height="70" rx="35" fill="#c0622e"/>
  <text x="730" y="547" text-anchor="middle" font-family="Arial, Helvetica, sans-serif" font-size="32" font-weight="bold" fill="white">Try It Free</text>
</svg>
